<?xml version="1.0" encoding="UTF-8" standalone="no"?>
<!-- Created with Inkscape (http://www.inkscape.org/) -->

<svg
   xmlns:dc="http://purl.org/dc/elements/1.1/"
   xmlns:cc="http://creativecommons.org/ns#"
   xmlns:rdf="http://www.w3.org/1999/02/22-rdf-syntax-ns#"
   xmlns:svg="http://www.w3.org/2000/svg"
   xmlns="http://www.w3.org/2000/svg"
   xmlns:sodipodi="http://sodipodi.sourceforge.net/DTD/sodipodi-0.dtd"
   xmlns:inkscape="http://www.inkscape.org/namespaces/inkscape"
   width="210mm"
   height="297mm"
   viewBox="0 0 210 297"
   version="1.1"
   id="svg8"
   inkscape:version="0.92.3 (2405546, 2018-03-11)"
   sodipodi:docname="logo.svg">
  <defs
     id="defs2" />
  <sodipodi:namedview
     id="base"
     pagecolor="#ffffff"
     bordercolor="#666666"
     borderopacity="1.0"
     inkscape:pageopacity="0.0"
     inkscape:pageshadow="2"
     inkscape:zoom="0.35"
     inkscape:cx="400"
     inkscape:cy="560"
     inkscape:document-units="mm"
     inkscape:current-layer="layer1"
     showgrid="false"
     showguides="false"
     inkscape:window-width="1366"
     inkscape:window-height="705"
     inkscape:window-x="-8"
     inkscape:window-y="-8"
     inkscape:window-maximized="1" />
  <metadata
     id="metadata5">
    <rdf:RDF>
      <cc:Work
         rdf:about="">
        <dc:format>image/svg+xml</dc:format>
        <dc:type
           rdf:resource="http://purl.org/dc/dcmitype/StillImage" />
        <dc:title></dc:title>
      </cc:Work>
    </rdf:RDF>
  </metadata>
  <g
     inkscape:label="Capa 1"
     inkscape:groupmode="layer"
     id="layer1">
    <path
       style="fill:#000000;stroke-width:0.26458332"
       id="path3867"
       d="m 39.848266,199.66133 c 0.380539,-0.17769 0.769749,-0.33788 1.141618,-0.53307 0.593149,-0.31133 2.333882,-1.31642 1.751468,-0.98545 -2.237745,1.27165 -4.401934,2.6837 -6.717466,3.80749 -1.158344,0.56217 2.178849,-1.37457 3.231681,-2.11575 2.532433,-1.78279 5.502849,-4.18723 7.902874,-6.08129 9.955289,-7.81397 19.273364,-16.36955 28.100647,-25.42647 5.014899,-5.47657 9.970799,-11.08577 14.194311,-17.21154 2.192147,-3.17948 3.1394,-5.00497 5.046186,-8.34837 4.751954,-8.78909 7.559665,-18.39844 10.427095,-27.91525 3.01336,-9.2898 5.29672,-18.77474 6.63997,-28.445181 0.72176,-5.682366 0.80303,-11.41173 0.81094,-17.1305 0.0605,-3.39329 -0.51049,-6.380123 -1.9794,-9.421046 -1.04807,-2.1469 -3.0812,-2.98931 -5.25494,-3.645331 -4.24626,-1.128575 -8.144646,-0.470061 -12.260896,0.801653 -0.841172,0.335119 -1.699784,0.629402 -2.523517,1.005356 -0.914913,0.417571 -1.799449,0.899258 -2.686772,1.372643 -0.898633,0.479419 -3.560776,1.979654 -2.670254,1.485328 11.72006,-6.505818 6.665544,-3.949324 3.820887,-1.806419 -0.842449,0.634624 -1.61544,1.356548 -2.423162,2.034821 -2.726156,2.53765 -5.252966,5.362384 -6.961122,8.701389 -0.648967,1.26856 -1.332788,3.144665 -1.843955,4.469672 -1.179465,3.599225 -2.157481,7.394546 -2.127171,11.214965 0.0059,0.738574 0.102553,1.473629 0.153832,2.210443 0.645258,4.229071 2.652741,7.844253 5.384469,11.05921 4.226846,4.291557 9.734285,5.153187 15.450269,5.957937 14.329222,1.63482 28.735152,0.43492 43.045542,-0.72425 16.7898,-1.7254 33.5565,-3.80532 50.17229,-6.790437 5.87648,-1.264915 3.12475,-0.637524 8.26041,-1.859132 0,0 -8.46816,6.440209 -8.46816,6.440209 v 0 c -4.92387,1.01523 -2.28147,0.49412 -7.93134,1.54231 -16.4954,2.58489 -33.08673,4.50957 -49.68224,6.32372 -14.615,1.28991 -29.31269,2.60297 -43.973293,1.1242 -6.33966,-0.8269 -11.594256,-1.65255 -16.257677,-6.37818 -2.820424,-3.42522 -4.932233,-7.234709 -5.667208,-11.67047 -0.07229,-0.777293 -0.194236,-1.551559 -0.216861,-2.331878 -0.113575,-3.917405 0.867056,-7.830857 2.004211,-11.541231 0.363712,-0.970709 1.366607,-3.707918 1.805255,-4.631264 1.650743,-3.474789 4.174415,-6.431126 6.922859,-9.083289 0.793467,-0.718031 1.541616,-1.489567 2.380401,-2.154097 0.839346,-0.664975 1.728856,-1.268468 2.643185,-1.825866 3.926226,-2.393529 7.897931,-4.712014 11.872973,-7.023565 1.370005,-0.796676 4.040497,-2.166379 5.496288,-2.781991 0.850458,-0.359632 1.734427,-0.634211 2.601637,-0.951317 4.39615,-1.183169 8.36803,-1.68448 12.81991,-0.402222 2.44715,0.848881 4.63509,1.920393 5.77316,4.386924 1.45463,3.15705 2.13262,6.456825 2.03832,9.947883 -0.0696,5.814441 -0.2939,11.635814 -1.03859,17.408197 -1.45466,9.742701 -3.91511,19.272876 -6.79121,28.690116 -2.85311,9.56011 -5.58654,19.24031 -10.27835,28.10183 -1.84022,3.27797 -2.91981,5.36527 -5.044592,8.48411 -4.240874,6.22492 -9.327301,11.85079 -14.357416,17.43166 -8.771612,9.03763 -18.006288,17.6114 -27.861011,25.4667 -1.532348,1.2391 -5.866508,4.77834 -7.59809,6.05522 -5.625864,4.14856 -11.739269,7.78755 -18.16096,10.53032 0,0 8.882965,-6.83945 8.882965,-6.83945 z"
       inkscape:connector-curvature="0" />
    <path
       style="fill:#ff0000;stroke-width:0.26458332"
       id="path3869"
       d="m 142.14146,145.75229 c -1.71414,-2.83152 -3.72352,-5.45225 -6.02729,-7.82352 -2.27107,-2.3637 -5.00873,-3.85137 -8.1342,-4.73147 -5.91785,-0.99583 -11.97027,-0.88974 -17.95364,-0.9639 -7.19556,0.0348 -14.396278,-0.20504 -21.591506,-0.0952 -4.78129,0.073 -7.289905,0.27324 -12.063113,0.55472 -8.703281,0.89349 -17.541504,1.83438 -25.93051,4.46707 -1.399199,0.4391 -2.757684,0.99873 -4.136528,1.4981 -3.217677,1.40251 -3.752823,1.55568 -6.761205,3.16322 -0.900824,0.48136 -3.552851,2.01696 -2.662057,1.51729 11.816971,-6.62855 7.431254,-4.55475 4.129907,-1.60287 -2.302639,2.34842 -2.645489,5.42778 -2.864424,8.55025 -0.230484,3.49223 -0.207526,6.58953 0.897157,9.92971 0.906645,2.6488 2.810598,4.69529 4.692341,6.69158 2.01731,1.79063 4.363926,3.11774 6.763469,4.31813 3.427471,1.36308 7.066902,1.81926 10.712945,2.12429 4.478882,0.28913 8.969695,0.26072 13.455523,0.27518 3.930888,-0.002 7.861612,-0.0427 11.792487,-0.047 3.111373,0.003 6.222661,-0.0309 9.334015,-0.0257 2.553714,-0.003 5.107419,-0.0128 7.661129,-0.0122 2.40302,-0.007 4.80599,7.9e-4 7.209,0.004 2.55633,-0.001 5.11252,0.007 7.66885,-0.005 2.06351,0.003 4.12698,-0.0181 6.19048,-0.013 2.49799,0.0171 4.99616,0.0254 7.49422,0.0207 2.39643,0.0328 4.76738,0.0584 7.14071,-0.28579 1.92918,-0.31371 3.88339,-0.39934 5.83373,-0.45651 0.31119,-0.0508 0.62237,-0.10162 0.93355,-0.15243 0,0 -8.94292,6.66099 -8.94292,6.66099 v 0 c -0.32815,0.0254 -0.6563,0.0508 -0.98445,0.0763 -1.93159,0.085 -3.85631,0.25094 -5.77071,0.5271 -2.38587,0.23577 -4.78166,0.12958 -7.17613,0.14471 -2.51702,-0.005 -5.03414,0.004 -7.55109,0.0207 -2.0516,0.005 -4.10315,-0.0161 -6.15476,-0.013 -2.55135,-0.0126 -5.10255,-0.004 -7.65391,-0.005 -2.40685,0.003 -4.813669,0.0112 -7.220523,0.004 -2.54251,5.3e-4 -5.085008,-0.01 -7.627519,-0.012 -3.092188,0.006 -6.18435,-0.025 -9.276564,-0.0143 -3.904761,0.007 -7.809505,-0.0112 -11.714263,-0.0144 -4.517009,-0.003 -9.039164,-0.0243 -13.547809,-0.32716 -3.768207,-0.36431 -7.547163,-0.89234 -11.054948,-2.40109 -2.481384,-1.29922 -4.929151,-2.68282 -6.971445,-4.63184 -1.998621,-2.10587 -3.917932,-4.34895 -4.906288,-7.12652 -0.445162,-1.33949 -0.630505,-1.73929 -0.881264,-3.15216 -0.419864,-2.36567 -0.139488,-4.77446 -0.17831,-7.16081 0.141327,-3.30631 0.370766,-6.63077 2.527503,-9.32278 4.394711,-4.22626 8.334145,-5.81275 14.406086,-9.31673 2.977544,-1.71827 6.114053,-3.15339 9.326015,-4.37291 1.385464,-0.4682 2.752926,-0.9935 4.15639,-1.4046 8.386733,-2.45664 17.16165,-3.34132 25.826868,-4.13528 11.310889,-0.62734 22.629921,-0.60259 33.955851,-0.59793 6.18218,0.006 12.47402,-0.29711 18.56846,0.91113 3.23649,1.05653 6.07656,2.70453 8.42056,5.2157 2.31473,2.44546 4.31229,5.12742 6.27439,7.86165 0,0 -9.63426,5.68719 -9.63426,5.68719 z"
       inkscape:connector-curvature="0" />
  </g>
</svg>
