<?xml version="1.0" encoding="UTF-8" standalone="no"?>
<!-- Created with Inkscape (http://www.inkscape.org/) -->

<svg
   xmlns:dc="http://purl.org/dc/elements/1.1/"
   xmlns:cc="http://creativecommons.org/ns#"
   xmlns:rdf="http://www.w3.org/1999/02/22-rdf-syntax-ns#"
   xmlns:svg="http://www.w3.org/2000/svg"
   xmlns="http://www.w3.org/2000/svg"
   xmlns:sodipodi="http://sodipodi.sourceforge.net/DTD/sodipodi-0.dtd"
   xmlns:inkscape="http://www.inkscape.org/namespaces/inkscape"
   width="210mm"
   height="297mm"
   viewBox="0 0 210 297"
   version="1.1"
   id="svg8"
   inkscape:version="0.92.3 (2405546, 2018-03-11)"
   sodipodi:docname="logo2.svg">
  <defs
     id="defs2" />
  <sodipodi:namedview
     id="base"
     pagecolor="#ffffff"
     bordercolor="#666666"
     borderopacity="1.0"
     inkscape:pageopacity="0.0"
     inkscape:pageshadow="2"
     inkscape:zoom="0.35"
     inkscape:cx="400"
     inkscape:cy="560"
     inkscape:document-units="mm"
     inkscape:current-layer="layer1"
     showgrid="false"
     showguides="false"
     inkscape:window-width="1366"
     inkscape:window-height="705"
     inkscape:window-x="-8"
     inkscape:window-y="-8"
     inkscape:window-maximized="1" />
  <metadata
     id="metadata5">
    <rdf:RDF>
      <cc:Work
         rdf:about="">
        <dc:format>image/svg+xml</dc:format>
        <dc:type
           rdf:resource="http://purl.org/dc/dcmitype/StillImage" />
        <dc:title></dc:title>
      </cc:Work>
    </rdf:RDF>
  </metadata>
  <g
     inkscape:label="Capa 1"
     inkscape:groupmode="layer"
     id="layer1">
    <flowRoot
       xml:space="preserve"
       id="flowRoot3871"
       style="fill:black;fill-opacity:1;stroke:none;font-family:sans-serif;font-style:normal;font-weight:normal;font-size:40px;line-height:1.25;letter-spacing:0px;word-spacing:0px"><flowRegion
         id="flowRegion3873"><rect
           id="rect3875"
           width="502.85715"
           height="280"
           x="142.85715"
           y="159.66254" /></flowRegion><flowPara
         id="flowPara3877"></flowPara></flowRoot>    <path
       style="fill:#000000;stroke-width:0.26458332"
       id="path3895"
       d="m 166.52673,61.719623 c -2.39771,0.959708 -4.95371,1.447718 -7.48612,1.904582 -4.25613,0.626986 -8.57177,0.617191 -12.86372,0.676728 -5.26481,0.03788 -10.52976,0.03076 -15.79466,0.04634 -3.97931,0.01955 -7.95862,0.02061 -11.93797,0.02349 -4.44339,-0.02159 -8.88682,-0.02558 -13.33024,-0.03594 -4.65583,-0.270954 -9.067001,0.308753 -13.62946,1.10282 -3.967872,0.546222 -7.868036,1.502344 -11.734977,2.530502 -3.807397,1.06613 -7.581958,2.239923 -11.353673,3.423822 -3.187758,1.020577 -6.296459,2.299324 -9.265602,3.845803 -4.490024,2.698634 2.015619,-1.223571 7.173055,-4.06155 0.392046,-0.21573 -0.737018,0.508183 -1.094219,0.777714 -0.995378,0.751081 -1.944717,1.570686 -2.91877,2.34936 -2.018773,1.328536 -3.584201,3.102663 -5.075166,4.974616 -1.860266,2.268315 -3.568718,4.655865 -5.004146,7.214791 -1.204373,2.25059 -1.6334,4.728961 -1.835912,7.24064 -0.140959,2.30219 -0.167312,4.603178 0.09613,6.895509 0.273574,1.90223 1.209243,3.56104 2.149282,5.19842 0.926748,1.59235 2.240742,2.89597 3.479387,4.2403 1.308576,1.20895 2.790946,2.206 4.171648,3.33196 1.850332,1.55339 3.6054,3.21081 5.459037,4.76008 1.404863,1.21233 3.017909,2.00869 4.683559,2.78441 2.08172,0.76768 4.234717,1.29149 6.424363,1.6348 2.06035,0.28355 4.144071,0.29507 6.219764,0.31845 2.136392,0.0132 4.272749,-0.003 6.40909,-0.0157 1.838555,-0.0189 3.677086,-0.007 5.515636,0.004 2.331831,0.008 4.663593,0.008 6.995424,-0.002 1.74141,-0.009 3.48284,-0.014 5.22428,-0.0166 1.68974,-0.0687 3.36024,-0.42591 5.04857,-0.59292 1.65455,-0.50224 3.36163,-0.68742 5.07789,-0.81432 1.57256,0.0767 3.04517,-0.24077 4.56736,-0.54902 1.39414,-0.24626 2.81281,-0.27838 4.22456,-0.30616 0.24781,-0.003 0.49562,-0.005 0.74343,-0.008 0,0 -9.04434,6.59753 -9.04434,6.59753 v 0 c -0.24557,0.007 -0.49113,0.0134 -0.7367,0.0201 -1.38374,0.0597 -2.7687,0.15735 -4.12363,0.46362 -1.52336,0.30229 -3.05776,0.32082 -4.60426,0.42498 -1.71075,0.18056 -3.37788,0.55416 -5.07179,0.83714 -1.70612,0.20497 -3.406143,0.55241 -5.131586,0.5027 -1.726184,-0.003 -3.452362,-0.008 -5.178525,-0.0167 -2.329844,-0.0102 -4.65963,-0.01 -6.989482,-0.002 -1.846776,0.0118 -3.693523,0.026 -5.540351,0.0165 -2.130846,-0.003 -4.261755,-10e-4 -6.39254,-0.0163 -2.113214,-0.0277 -4.235183,-0.0901 -6.320554,-0.46586 -2.249578,-0.43177 -4.490061,-0.97625 -6.609511,-1.86079 -1.749833,-0.80772 -3.384005,-1.75624 -4.830361,-3.04654 -1.823942,-1.56957 -3.536153,-3.26447 -5.457766,-4.71958 -1.445546,-1.12107 -2.967718,-2.16088 -4.252011,-3.47333 -1.322226,-1.38662 -2.662036,-2.78882 -3.629353,-4.4566 -1.001665,-1.77439 -1.997138,-3.56651 -2.328796,-5.61028 -0.277963,-2.35737 -0.326176,-4.7154 -0.186023,-7.087232 0.181938,-2.644079 0.53423,-5.269175 1.69337,-7.690422 1.372497,-2.622989 3.024143,-5.084913 4.903975,-7.374403 1.468147,-1.902933 2.864329,-3.906766 4.945055,-5.200459 0.636339,-0.505569 1.288552,-0.991278 1.916591,-1.507117 0.358743,-0.294651 1.678869,-1.484834 2.078884,-1.727639 3.48832,-2.117379 7.028791,-4.147706 10.554632,-6.202006 0.401071,-0.23368 0.816924,-0.441012 1.225388,-0.661519 3.022127,-1.439407 6.127382,-2.714577 9.336474,-3.676946 3.77086,-1.167445 7.55051,-2.307632 11.355178,-3.360558 3.878472,-0.996875 7.789095,-1.879949 11.759232,-2.429282 4.53906,-0.755137 9.08673,-1.141198 13.69529,-0.923184 4.47543,-0.01029 8.95086,-0.01455 13.42627,-0.03325 3.94908,0.0063 7.89809,0.01437 11.84709,0.04297 5.25397,0.02392 10.50868,0.03623 15.76217,-0.04707 4.31126,-0.09005 8.65184,-0.160134 12.90471,-0.94746 2.56609,-0.544039 5.11419,-1.142376 7.56841,-2.085724 0,0 -8.88297,6.839453 -8.88297,6.839453 z"
       inkscape:connector-curvature="0" />
    <path
       style="fill:#ff0000;stroke-width:0.26458332"
       id="path3885"
       d="m 108.55433,63.86002 c -0.12778,4.278837 -0.14967,8.560327 -0.21138,12.840563 -0.12534,9.151662 -2.4592,18.095751 -4.8018,26.886837 -3.00314,10.89144 -7.216501,21.37985 -11.488138,31.82039 -4.665358,10.92664 -9.888524,21.60297 -15.373654,32.1381 -3.59995,6.47847 -7.178474,12.96471 -11.028241,19.29827 -1.416679,2.19025 -0.721643,1.14358 -2.07976,3.14356 0,0 -10.082765,4.38675 -10.082765,4.38675 v 0 c 1.44159,-2.01713 0.693044,-0.96588 2.244704,-3.15441 4.059385,-6.36416 7.819321,-12.90099 11.566329,-19.45396 5.577088,-10.48589 10.89366,-21.1192 15.481072,-32.08103 4.292365,-10.37537 8.426802,-20.83956 11.468478,-31.66194 2.269832,-8.64721 4.53907,-17.455498 4.538824,-26.454075 -0.06158,-4.208428 -0.08256,-8.418187 -0.211381,-12.625155 0,0 9.977712,-5.0839 9.977712,-5.0839 z"
       inkscape:connector-curvature="0" />
  </g>
</svg>
